# xmcd
#
# Track frame offsets: 
#        150
#        21385
#        38667
#        59980
#
# Disc length: 1028 seconds
#
# Revision: 0
# Processed by: cddbd v1.5.2PL0 Copyright (c) Steve Scherf et al.
# Submitted via: ExactAudioCopy v1.0b3
#
DISCID=35040204
DTITLE=山崎まさよし - Heart of Winter
DYEAR=2008
DGENRE=Pops
TTITLE0=Heart of Winter
TTITLE1=Greeting Melody
TTITLE2=Heart of Winter (Instrumental)
TTITLE3=Greeting Melody (Instrumental)
EXTD=
EXTT0=
EXTT1=
EXTT2=
EXTT3=
PLAYORDER=
